<?xml version="1.0" encoding="UTF-8" standalone="no"?>
<!-- Created with Inkscape (http://www.inkscape.org/) -->

<svg
   width="140.35953"
   height="211.07468"
   viewBox="0 0 37.136792 55.846844"
   version="1.1"
   id="svg1"
   xmlns:xlink="http://www.w3.org/1999/xlink"
   xmlns="http://www.w3.org/2000/svg"
   xmlns:svg="http://www.w3.org/2000/svg">
  <defs
     id="defs1">
    <linearGradient
       id="linearGradient8">
      <stop
         style="stop-color:#f09b1b;stop-opacity:1;"
         offset="0"
         id="stop8" />
      <stop
         style="stop-color:#f0b05e;stop-opacity:1;"
         offset="1"
         id="stop9" />
    </linearGradient>
    <linearGradient
       id="linearGradient6">
      <stop
         style="stop-color:#cf9132;stop-opacity:1;"
         offset="0"
         id="stop6" />
      <stop
         style="stop-color:#db8b10;stop-opacity:1;"
         offset="1"
         id="stop7" />
    </linearGradient>
    <linearGradient
       xlink:href="#linearGradient6"
       id="linearGradient7"
       x1="266.34549"
       y1="498.70755"
       x2="528.84576"
       y2="273.13733"
       gradientUnits="userSpaceOnUse"
       gradientTransform="matrix(0.26419266,0,0,0.26419266,176.3233,71.490338)" />
    <linearGradient
       xlink:href="#linearGradient8"
       id="linearGradient9"
       x1="228.84546"
       y1="348.70767"
       x2="959.63293"
       y2="162.04271"
       gradientUnits="userSpaceOnUse"
       gradientTransform="matrix(0.26419266,0,0,0.26419266,176.3233,71.490338)" />
  </defs>
  <g
     id="layer1"
     transform="translate(-395.57245,-91.340914)">
    <g
       id="g2"
       transform="translate(75.946094,-3.3471683)">
      <g
         id="g1"
         transform="matrix(0.46855634,0,0,0.46855634,208.68035,55.302535)">
        <path
           id="path1"
           style="opacity:1;fill:url(#linearGradient9);fill-opacity:1;stroke-width:0.267364;stroke-dasharray:none"
           d="m 276.4116,123.9875 c -21.88647,-5e-5 -39.62895,17.74245 -39.62895,39.62895 4e-5,21.88633 17.74257,39.6288 39.62895,39.62872 -16.41484,8e-5 -29.72172,-13.30677 -29.72172,-29.72168 0.078,-14.79725 11.02928,-27.28333 25.68999,-29.29039 0.12492,-0.0246 0.24953,-0.0482 0.37448,-0.0708 0.2784,-0.057 0.5571,-0.10967 0.83678,-0.15862 -0.16778,0.04 -0.33537,0.0816 -0.50215,0.12536 1.09639,-0.2024 2.20779,-0.31185 3.32252,-0.32724 10.94324,0 19.81445,8.87125 19.81445,19.81451 v -34.30742 c -6.02314,-3.48242 -12.85703,-5.31777 -19.81445,-5.32147 z m 19.81447,39.62895 c -0.0157,1.16093 -0.12581,2.31852 -0.34106,3.45951 0.0201,-0.0977 0.0444,-0.19527 0.0639,-0.29247 0.17693,-1.04639 0.26927,-2.1053 0.27725,-3.16656 z m -19.81447,39.62872 c 1.98632,-0.004 3.96931,-0.16285 5.93216,-0.46668 -1.96285,0.30383 -3.94584,0.4603 -5.93216,0.46668 z m -5.40175,-58.59649 c -0.58553,0.14879 -1.16396,0.32436 -1.73345,0.52592 0.56949,-0.20174 1.14792,-0.37716 1.73345,-0.52592 z m -3.68868,1.4675 c -0.5371,0.25677 -1.0624,0.53747 -1.57428,0.84142 0.51188,-0.30383 1.03718,-0.58474 1.57428,-0.84142 z m -3.32818,2.18249 c -0.46671,0.34981 -0.91784,0.72004 -1.35188,1.10957 0.43367,-0.38976 0.88514,-0.75976 1.35188,-1.10957 z m -2.83584,2.82213 c -0.37638,0.42036 -0.73402,0.85651 -1.07293,1.30735 0.33877,-0.45094 0.69687,-0.88699 1.07293,-1.30735 z m -2.23335,3.38198 c -0.26698,0.45439 -0.5154,0.91961 -0.74521,1.39393 0.22941,-0.4741 0.47856,-0.93935 0.74521,-1.39393 z m -1.5391,3.90699 c -0.14209,0.41836 -0.27041,0.84064 -0.38433,1.26723 0.11396,-0.42674 0.24233,-0.8492 0.38433,-1.26723 z m 58.65569,5.20105 v 0.004 h 1.7e-4 z m 1.7e-4,0.004 c -0.004,1.98592 -0.16287,3.96859 -0.4667,5.93121 0.30383,-1.96262 0.46028,-3.94529 0.4667,-5.93121 z m -58.97547,4.15295 c 0.11708,0.43957 0.24879,0.8744 0.39567,1.30462 -0.14653,-0.43022 -0.27876,-0.86538 -0.39567,-1.30462 z m 38.48729,0.67835 c -0.17806,0.73572 -0.39815,1.46054 -0.65867,2.17108 0.0956,-0.24233 0.18655,-0.48599 0.27347,-0.73167 0.14653,-0.47459 0.27497,-0.95493 0.3858,-1.43941 z m 19.60405,3.01847 c -0.24537,1.30728 -0.55577,2.60142 -0.93097,3.87752 0.3756,-1.2761 0.68587,-2.57024 0.93097,-3.87752 z m -56.76437,0.26892 c 0.23319,0.48344 0.48689,0.95694 0.75875,1.41964 -0.27193,-0.46278 -0.52519,-0.93633 -0.75875,-1.41964 z m 35.83624,0.37985 c -0.31675,0.68265 -0.67124,1.34678 -1.06311,1.98907 0.0588,-0.0824 0.11707,-0.1651 0.17425,-0.248 0.18609,-0.31905 0.36308,-0.6435 0.53108,-0.97268 0.12492,-0.25295 0.2442,-0.50946 0.35814,-0.768 z m -1.92952,3.22647 c -0.4312,0.58894 -0.89469,1.1536 -1.38822,1.6914 0.19793,-0.18945 0.39124,-0.38285 0.58065,-0.58052 0.15727,-0.20174 0.31029,-0.40655 0.45979,-0.61403 0.11841,-0.16376 0.23471,-0.32967 0.34788,-0.49712 z m -31.77365,8.3e-4 c 0.33801,0.44895 0.69434,0.88372 1.069,1.30252 -0.3745,-0.41885 -0.73137,-0.85342 -1.069,-1.30252 z m 52.88322,2.19259 c -0.40999,1.13386 -0.87191,2.24845 -1.38372,3.3402 0.51181,-1.09175 0.9735,-2.20634 1.38372,-3.3402 z m -23.58092,0.58117 c -0.53752,0.49287 -1.10189,0.95637 -1.69048,1.3874 0.1671,-0.11352 0.33232,-0.229 0.49658,-0.34788 0.20687,-0.14879 0.41194,-0.30234 0.61372,-0.45983 0.19749,-0.18923 0.39074,-0.38283 0.58022,-0.58021 z m -26.44386,0.31827 c 0.41883,0.37448 0.85331,0.73117 1.3024,1.06889 -0.44896,-0.33803 -0.88361,-0.69432 -1.3024,-1.06889 z m 23.51567,1.93593 c -0.64274,0.39221 -1.30734,0.74734 -1.99045,1.06384 0.25902,-0.11441 0.51541,-0.2336 0.76932,-0.35855 0.32892,-0.16778 0.65315,-0.34485 0.97225,-0.53086 0.0835,-0.0576 0.16644,-0.11545 0.24876,-0.1747 z m -20.02557,0.50742 c 0.46273,0.2723 0.93608,0.525 1.41915,0.75857 -0.483,-0.23319 -0.95659,-0.48645 -1.41915,-0.75857 z m 16.5418,1.22076 c -0.71162,0.26129 -1.43769,0.48145 -2.17457,0.65967 0.48545,-0.11086 0.96598,-0.23927 1.44141,-0.3863 0.24613,-0.0863 0.49041,-0.17782 0.73316,-0.27385 z m -12.4615,0.46917 c 0.4302,0.14653 0.86538,0.27876 1.30461,0.39563 -0.43957,-0.11708 -0.87441,-0.24876 -1.30461,-0.39563 z m 39.88055,0.48742 c -0.5618,1.01416 -1.16785,2.00315 -1.81641,2.96413 0.64856,-0.96098 1.25461,-1.94997 1.81641,-2.96413 z m -30.96337,0.0342 c -1.14094,0.21491 -2.2986,0.32854 -3.45955,0.34107 1.06125,-0.004 2.12016,-0.10035 3.16656,-0.27728 0.0981,-0.0179 0.19591,-0.0395 0.29245,-0.0639 z m 27.62142,4.96649 c -0.70344,0.89952 -1.4454,1.76833 -2.22386,2.60381 0.77846,-0.83548 1.52042,-1.70429 2.22386,-2.60381 z m -4.03745,4.41738 c -0.83499,0.77786 -1.70312,1.51932 -2.60204,2.22225 0.89892,-0.70293 1.76705,-1.44439 2.60204,-2.22225 z m -4.64245,3.74968 c -0.96002,0.64783 -1.94801,1.25329 -2.96108,1.81454 1.01307,-0.56125 2.00106,-1.16671 2.96108,-1.81454 z m -5.14357,3.00628 c -1.09125,0.51143 -2.20517,0.97286 -3.33847,1.38272 1.1333,-0.40996 2.24722,-0.87129 3.33847,-1.38272 z m -5.53023,2.20028 c -1.27725,0.37563 -2.57265,0.68657 -3.88118,0.93176 1.30853,-0.24535 2.60393,-0.55617 3.88118,-0.93176 z" />
        <path
           id="path4"
           style="opacity:1;fill:url(#linearGradient7);fill-opacity:1;stroke-width:0.200377"
           d="m 316.04039,84.057227 c -10.97711,0 -19.81432,5.788119 -19.81432,12.977833 v 66.58139 c -0.004,1.0612 -0.10035,2.12016 -0.27725,3.16655 -0.0631,0.32892 -0.1341,0.65626 -0.21336,0.98164 -0.15012,0.7174 -0.34031,1.42606 -0.5688,2.1225 -0.12358,0.36273 -0.25752,0.72124 -0.4016,1.07588 -0.26396,0.65534 -0.56275,1.29618 -0.89519,1.91964 -0.16778,0.32889 -0.34487,0.65349 -0.53108,0.97261 -0.42181,0.68858 -0.88551,1.35067 -1.38818,1.98264 -0.14879,0.20777 -0.3023,0.41244 -0.45981,0.61407 -0.68679,0.80676 -1.43721,1.55714 -2.24407,2.24393 -0.20173,0.15729 -0.40601,0.31031 -0.61369,0.45985 -0.6321,0.50255 -1.29443,0.96658 -1.98307,1.38866 -0.31905,0.18609 -0.64332,0.36309 -0.97229,0.5308 -0.62357,0.33197 -1.26453,0.63135 -1.92006,0.8954 -0.35474,0.14386 -0.71334,0.27838 -1.07568,0.40105 -0.69644,0.22866 -1.40503,0.41888 -2.12238,0.56873 -0.32513,0.0793 -0.65278,0.15034 -0.98183,0.21424 -1.04637,0.17694 -2.10532,0.26929 -3.16653,0.27726 -10.9432,0 -19.81441,-8.87118 -19.81445,-19.81431 0,-9.85378 7.24079,-18.21021 16.9942,-19.61269 -15.22738,1.45137 -26.8666,14.22344 -26.90147,29.51981 0,16.41482 13.30688,29.72172 29.72172,29.72169 21.88638,3e-5 39.62885,-17.74243 39.6289,-39.62881 h -1.3e-4 z" />
      </g>
    </g>
  </g>
</svg>
